<svg width="420" height="420" viewBox="0 0 420 420" xmlns="http://www.w3.org/2000/svg" role="img" aria-label="Compass Hero standing confidently">
  <rect width="420" height="420" fill="#F3F6FB"/>
  <ellipse cx="210" cy="366" rx="86" ry="18" fill="#D8E3EE"/>

  <circle cx="210" cy="108" r="34" fill="#E6DCCB" stroke="#1E3550" stroke-width="6"/>
  <rect x="168" y="142" width="84" height="104" rx="18" fill="#2F4F68" stroke="#1E3550" stroke-width="6"/>
  <rect x="183" y="163" width="54" height="12" rx="6" fill="#D7B46A"/>

  <circle cx="210" cy="196" r="18" fill="#F6F9FC" stroke="#1E3550" stroke-width="4"/>
  <path d="M210 183 L214 196 L210 209 L206 196 Z" fill="#D7B46A" stroke="#1E3550" stroke-width="3"/>

  <path d="M167 166 L138 228" stroke="#1E3550" stroke-width="8" stroke-linecap="round"/>
  <path d="M253 166 L282 228" stroke="#1E3550" stroke-width="8" stroke-linecap="round"/>
  <circle cx="136" cy="232" r="11" fill="#E6DCCB" stroke="#1E3550" stroke-width="5"/>
  <circle cx="284" cy="232" r="11" fill="#E6DCCB" stroke="#1E3550" stroke-width="5"/>

  <rect x="181" y="246" width="22" height="90" rx="11" fill="#1E3550"/>
  <rect x="217" y="246" width="22" height="90" rx="11" fill="#1E3550"/>
  <rect x="171" y="328" width="34" height="16" rx="6" fill="#2C3F4F"/>
  <rect x="215" y="328" width="34" height="16" rx="6" fill="#2C3F4F"/>

  <path d="M200 102 Q210 97 220 102" stroke="#1E3550" stroke-width="4" fill="none" stroke-linecap="round"/>
</svg>
