<svg width="420" height="420" viewBox="0 0 420 420" xmlns="http://www.w3.org/2000/svg" role="img" aria-label="Compass Hero pointing forward">
  <rect width="420" height="420" fill="#F3F6FB"/>
  <ellipse cx="208" cy="366" rx="86" ry="18" fill="#D8E3EE"/>

  <circle cx="198" cy="108" r="34" fill="#E6DCCB" stroke="#1E3550" stroke-width="6"/>
  <rect x="156" y="142" width="84" height="104" rx="18" fill="#3D627B" stroke="#1E3550" stroke-width="6"/>
  <rect x="171" y="163" width="54" height="12" rx="6" fill="#D7B46A"/>

  <circle cx="198" cy="196" r="16" fill="#F6F9FC" stroke="#1E3550" stroke-width="4"/>
  <path d="M198 184 L202 196 L198 208 L194 196 Z" fill="#D7B46A" stroke="#1E3550" stroke-width="3"/>

  <path d="M155 168 L132 228" stroke="#1E3550" stroke-width="8" stroke-linecap="round"/>
  <path d="M240 168 L300 150" stroke="#1E3550" stroke-width="8" stroke-linecap="round"/>
  <circle cx="130" cy="233" r="11" fill="#E6DCCB" stroke="#1E3550" stroke-width="5"/>
  <circle cx="304" cy="148" r="11" fill="#E6DCCB" stroke="#1E3550" stroke-width="5"/>

  <rect x="170" y="246" width="22" height="90" rx="11" fill="#1E3550"/>
  <rect x="206" y="246" width="22" height="90" rx="11" fill="#1E3550"/>
  <rect x="160" y="328" width="34" height="16" rx="6" fill="#2C3F4F"/>
  <rect x="204" y="328" width="34" height="16" rx="6" fill="#2C3F4F"/>

  <path d="M286 146 L338 130 L322 174 Z" fill="#D7B46A" stroke="#1E3550" stroke-width="5"/>
</svg>
